HIERARCHY
ROOT Hips
{
    OFFSET   0.000000   0.000000   0.000000
    CHANNELS 6 Xposition Yposition Zposition Zrotation Xrotation Yrotation
    JOINT Chest
    {
        OFFSET   0.000000   8.007230   0.000000
        CHANNELS 3 Zrotation Xrotation Yrotation
        JOINT Chest2
        {
            OFFSET   0.000000  22.077100   0.000000
            CHANNELS 3 Zrotation Xrotation Yrotation
            JOINT Neck
            {
                OFFSET   0.000000  23.254800   0.000000
                CHANNELS 3 Zrotation Xrotation Yrotation
                JOINT Head
                {
                    OFFSET   0.000010  14.370000   1.956600
                    CHANNELS 3 Zrotation Xrotation Yrotation
                    End Site
                    {
                        OFFSET   0.000000  19.566000   0.000000
                    }
                }
            }
            JOINT LeftCollar
            {
                OFFSET   3.911900  19.017000  -0.467062
                CHANNELS 3 Zrotation Xrotation Yrotation
                JOINT LeftShoulder
                {
                    OFFSET  10.383700   0.000000   0.000000
                    CHANNELS 3 Zrotation Xrotation Yrotation
                    JOINT LeftElbow
                    {
                        OFFSET  26.662100   0.001193   0.000835
                        CHANNELS 3 Zrotation Xrotation Yrotation
                        JOINT LeftWrist
                        {
                            OFFSET  28.869000  -0.000058  -0.000075
                            CHANNELS 3 Zrotation Xrotation Yrotation
                            JOINT LeftFinger0
                            {
                                OFFSET   2.044660  -2.323460   3.252850
                                CHANNELS 3 Zrotation Xrotation Yrotation
                                JOINT LeftFinger01
                                {
                                    OFFSET   3.088130   0.000000   0.000000
                                    CHANNELS 3 Zrotation Xrotation Yrotation
                                    JOINT LeftFinger02
                                    {
                                        OFFSET   2.639450   0.000000   0.000000
                                        CHANNELS 3 Zrotation Xrotation Yrotation
                                        End Site
                                        {
                                            OFFSET   2.582190   0.000000   0.000000
                                        }
                                    }
                                }
                            }
                            JOINT LeftFinger1
                            {
                                OFFSET   8.364480   0.000000   3.252850
                                CHANNELS 3 Zrotation Xrotation Yrotation
                                JOINT LeftFinger11
                                {
                                    OFFSET   4.646920   0.000000   0.000000
                                    CHANNELS 3 Zrotation Xrotation Yrotation
                                    JOINT LeftFinger12
                                    {
                                        OFFSET   2.323460   0.000000   0.000000
                                        CHANNELS 3 Zrotation Xrotation Yrotation
                                        End Site
                                        {
                                            OFFSET   2.273050   0.000000   0.000000
                                        }
                                    }
                                }
                            }
                            JOINT LeftFinger2
                            {
                                OFFSET   8.364490   0.000016   1.078090
                                CHANNELS 3 Zrotation Xrotation Yrotation
                                JOINT LeftFinger21
                                {
                                    OFFSET   5.111620   0.000000   0.000000
                                    CHANNELS 3 Zrotation Xrotation Yrotation
                                    JOINT LeftFinger22
                                    {
                                        OFFSET   2.788150   0.000012   0.000000
                                        CHANNELS 3 Zrotation Xrotation Yrotation
                                        End Site
                                        {
                                            OFFSET   2.727660   0.000000   0.000000
                                        }
                                    }
                                }
                            }
                            JOINT LeftFinger3
                            {
                                OFFSET   7.899780   0.000014  -1.078090
                                CHANNELS 3 Zrotation Xrotation Yrotation
                                JOINT LeftFinger31
                                {
                                    OFFSET   4.646930   0.000000   0.000000
                                    CHANNELS 3 Zrotation Xrotation Yrotation
                                    JOINT LeftFinger32
                                    {
                                        OFFSET   2.323470   0.000000   0.000000
                                        CHANNELS 3 Zrotation Xrotation Yrotation
                                        End Site
                                        {
                                            OFFSET   2.273050   0.000000   0.000000
                                        }
                                    }
                                }
                            }
                            JOINT LeftFinger4
                            {
                                OFFSET   7.435090   0.000000  -3.252850
                                CHANNELS 3 Zrotation Xrotation Yrotation
                                JOINT LeftFinger41
                                {
                                    OFFSET   3.717550   0.000000   0.000000
                                    CHANNELS 3 Zrotation Xrotation Yrotation
                                    JOINT LeftFinger42
                                    {
                                        OFFSET   1.858770   0.000000   0.000000
                                        CHANNELS 3 Zrotation Xrotation Yrotation
                                        End Site
                                        {
                                            OFFSET   1.818440   0.000000   0.000000
                                        }
                                    }
                                }
                            }
                        }
                    }
                }
            }
            JOINT RightCollar
            {
                OFFSET  -3.911900  19.017000  -0.467063
                CHANNELS 3 Zrotation Xrotation Yrotation
                JOINT RightShoulder
                {
                    OFFSET -10.383700   0.000023   0.000000
                    CHANNELS 3 Zrotation Xrotation Yrotation
                    JOINT RightElbow
                    {
                        OFFSET -26.662100   0.001246   0.001011
                        CHANNELS 3 Zrotation Xrotation Yrotation
                        JOINT RightWrist
                        {
                            OFFSET -28.869000  -0.000026  -0.000078
                            CHANNELS 3 Zrotation Xrotation Yrotation
                            JOINT RightFinger0
                            {
                                OFFSET  -2.044660  -2.323490   3.252850
                                CHANNELS 3 Zrotation Xrotation Yrotation
                                JOINT RightFinger01
                                {
                                    OFFSET  -3.088130   0.000000   0.000000
                                    CHANNELS 3 Zrotation Xrotation Yrotation
                                    JOINT RightFinger02
                                    {
                                        OFFSET  -2.639460   0.000000   0.000000
                                        CHANNELS 3 Zrotation Xrotation Yrotation
                                        End Site
                                        {
                                            OFFSET  -2.582190   0.000000   0.000000
                                        }
                                    }
                                }
                            }
                            JOINT RightFinger1
                            {
                                OFFSET  -8.364480   0.000000   3.252850
                                CHANNELS 3 Zrotation Xrotation Yrotation
                                JOINT RightFinger11
                                {
                                    OFFSET  -4.646920   0.000000   0.000000
                                    CHANNELS 3 Zrotation Xrotation Yrotation
                                    JOINT RightFinger12
                                    {
                                        OFFSET  -2.323470   0.000000   0.000000
                                        CHANNELS 3 Zrotation Xrotation Yrotation
                                        End Site
                                        {
                                            OFFSET  -2.273050   0.000000   0.000000
                                        }
                                    }
                                }
                            }
                            JOINT RightFinger2
                            {
                                OFFSET  -8.364480   0.000000   1.078090
                                CHANNELS 3 Zrotation Xrotation Yrotation
                                JOINT RightFinger21
                                {
                                    OFFSET  -5.111620   0.000000   0.000000
                                    CHANNELS 3 Zrotation Xrotation Yrotation
                                    JOINT RightFinger22
                                    {
                                        OFFSET  -2.788160   0.000000   0.000000
                                        CHANNELS 3 Zrotation Xrotation Yrotation
                                        End Site
                                        {
                                            OFFSET  -2.727660   0.000000   0.000000
                                        }
                                    }
                                }
                            }
                            JOINT RightFinger3
                            {
                                OFFSET  -7.899780   0.000000  -1.078090
                                CHANNELS 3 Zrotation Xrotation Yrotation
                                JOINT RightFinger31
                                {
                                    OFFSET  -4.646930   0.000000   0.000000
                                    CHANNELS 3 Zrotation Xrotation Yrotation
                                    JOINT RightFinger32
                                    {
                                        OFFSET  -2.323470   0.000000   0.000000
                                        CHANNELS 3 Zrotation Xrotation Yrotation
                                        End Site
                                        {
                                            OFFSET  -2.273050   0.000000   0.000000
                                        }
                                    }
                                }
                            }
                            JOINT RightFinger4
                            {
                                OFFSET  -7.435090   0.000000  -3.252850
                                CHANNELS 3 Zrotation Xrotation Yrotation
                                JOINT RightFinger41
                                {
                                    OFFSET  -3.717550   0.000000   0.000000
                                    CHANNELS 3 Zrotation Xrotation Yrotation
                                    JOINT RightFinger42
                                    {
                                        OFFSET  -1.858760   0.000000   0.000000
                                        CHANNELS 3 Zrotation Xrotation Yrotation
                                        End Site
                                        {
                                            OFFSET  -1.818440   0.000000   0.000000
                                        }
                                    }
                                }
                            }
                        }
                    }
                }
            }
        }
    }
    JOINT LeftHip
    {
        OFFSET   9.783010   0.000000   0.000000
        CHANNELS 3 Zrotation Xrotation Yrotation
        JOINT LeftKnee
        {
            OFFSET   0.000073 -41.789100   0.001749
            CHANNELS 3 Zrotation Xrotation Yrotation
            JOINT LeftAnkle
            {
                OFFSET   0.000111 -41.133200  -0.000179
                CHANNELS 3 Zrotation Xrotation Yrotation
                JOINT LeftToe
                {
                    OFFSET   0.000000  -6.358960  14.674500
                    CHANNELS 3 Zrotation Xrotation Yrotation
                    End Site
                    {
                        OFFSET   0.000000   0.000000   3.913200
                    }
                }
            }
        }
    }
    JOINT RightHip
    {
        OFFSET  -9.783010   0.000000   0.000000
        CHANNELS 3 Zrotation Xrotation Yrotation
        JOINT RightKnee
        {
            OFFSET   0.000424 -41.789200   0.005205
            CHANNELS 3 Zrotation Xrotation Yrotation
            JOINT RightAnkle
            {
                OFFSET   0.000000 -41.133200  -0.000155
                CHANNELS 3 Zrotation Xrotation Yrotation
                JOINT RightToe
                {
                    OFFSET   0.000000  -6.358960  14.674500
                    CHANNELS 3 Zrotation Xrotation Yrotation
                    End Site
                    {
                        OFFSET   0.000000   0.000000   3.913200
                    }
                }
            }
        }
    }
}
MOTION
Frames: 4
Frame Time:   0.016667
 -1.884380  89.953800   0.145504   2.121010 -11.309800   6.409100   1.547500   8.847840   1.196960   2.959120  17.723600   2.188280   3.995660  -0.499288   0.035089   6.559100  -0.993437   6.287150  -0.979883  -3.805960   2.917480 -32.472000 -14.684600 -56.417800  25.239900 -16.710100 -80.213300  17.558900  28.694700 -14.408600  59.040400  54.333300 -108.293000  16.044300   0.002669   0.002803  13.022200   0.006859   0.008700 -35.964700   6.783270  -9.245780 -29.873400  -0.002705   0.002503 -20.911300  -0.000490   0.002033 -31.079400   0.865362  -1.435390 -46.634600  -0.003122   0.003365 -31.058600  -0.002911   0.000141 -30.545500  -1.010130   1.711490 -45.840900   0.004897  -0.003274 -30.530100   0.003521  -0.002270 -33.013800  -1.083050   1.666260 -49.544400  -0.004729   0.004731 -32.996600  -0.005284  -0.001415   7.119140  -4.633210   9.676830  53.991800  14.827900  47.648300  -9.779270 -19.649000 100.861000 -32.535600  30.157000  23.744200 -25.953600  18.023800  52.073700  48.806700  -0.001568   0.002024  25.333100   0.001368  -0.000856  40.505400   3.119500   3.636190  33.229800  -0.001462  -0.000588  23.431400   0.006222  -0.000334  88.528300  -0.002163   0.005534  88.530100   0.005483   0.003064  66.397500   0.000479  -0.003065  88.996800  -5.000120  -0.080577  94.817100   0.006215  -0.000394  71.112900   0.002099  -0.008168  88.984900 -10.003700  -0.174503 110.000000  -0.001182  -0.007443  80.000000  -0.005150   0.005190  -0.040962  11.072000   1.158480   1.088060   2.918620   8.185620  -6.935080  -3.847540   1.453400  -0.000000   0.000000   0.000000   1.629190  13.577500 -10.934600   0.795074   0.928295  -9.941700 -10.727000  -0.512794  -0.328723  -0.000000   0.000000   0.000000
 -1.889200  89.962200   0.190894   2.186110 -11.298800   6.651010   1.554890   8.893670   1.269850   2.961850  17.817200   2.334620   3.784450  -0.805114   0.053461   6.215900  -1.606390   4.877780  -1.033250  -3.934710   2.796030 -32.403700 -14.603500 -56.672300  25.292300 -16.760200 -80.243700  17.680600  28.689300 -14.490600  59.040400  54.333300 -108.293000  16.011400   0.002621   0.002742  13.005700   0.006927   0.008666 -36.057400   6.749230  -9.169920 -29.944700  -0.002700   0.002419 -20.961300  -0.000440   0.001979 -31.122500   0.812623  -1.345840 -46.697900  -0.003253   0.003462 -31.100800  -0.003019   0.000069 -30.601200  -1.014520   1.714610 -45.924500   0.004836  -0.003228 -30.585700   0.003476  -0.002219 -33.066300  -1.087330   1.669360 -49.623100  -0.004841   0.004806 -33.049000  -0.005366  -0.001429   7.136960  -4.637320   9.878360  53.934500  15.124000  48.428200  -9.974560 -19.538000 100.820000 -32.509000  30.407900  23.428200 -25.961100  18.122600  51.880800  48.875600  -0.001239   0.001610  25.438000   0.001358  -0.000892  40.181600   3.000100   3.545210  32.952200  -0.001363  -0.000685  23.179100   0.006222  -0.000472  88.538500  -0.002284   0.005560  88.542100   0.005504   0.003057  66.406500   0.000345  -0.003024  88.996800  -5.000150  -0.080711  94.829000   0.006208  -0.000326  71.121800   0.001864  -0.008076  88.984900 -10.003700  -0.174368 110.000000  -0.001238  -0.007357  80.000000  -0.005137   0.005179  -0.047109  11.076500   1.164070   1.096270   2.906960   8.067910  -6.971690  -3.833990   1.336610  -0.000000   0.000000  -0.000000   1.637960  13.622100 -10.954600   0.805432   0.921330 -10.021600 -10.739100  -0.538681  -0.480794   0.000000   0.000000   0.000000
 -1.895130  89.968800   0.237850   2.247860 -11.297900   6.854380   1.560170   8.938690   1.355500   2.958070  17.908600   2.507460   3.572440  -1.095000   0.068763   5.874040  -2.192180   3.466870  -1.074260  -4.024430   2.657780 -32.370400 -14.545300 -56.938500  25.360700 -16.763500 -80.267000  17.663000  28.629800 -14.487300  59.040400  54.333300 -108.293000  15.981200   0.002578   0.002687  12.990600   0.007006   0.008646 -36.193400   6.709060  -9.064720 -30.049100  -0.002699   0.002325 -21.034400  -0.000396   0.001921 -31.207500   0.769560  -1.270520 -46.824300  -0.003389   0.003557 -31.184900  -0.003128  -0.000004 -30.687000  -1.038810   1.748940 -46.054000   0.004774  -0.003185 -30.671900   0.003423  -0.002162 -33.189100  -1.113810   1.702150 -49.808100  -0.004948   0.004903 -33.172200  -0.005439  -0.001449   7.158990  -4.510760  10.097200  53.727500  15.537000  49.304200 -10.265100 -19.507300 100.594000 -32.838000  30.795500  23.296300 -25.961200  18.201800  51.607300  48.942000  -0.000907   0.001166  25.544000   0.001351  -0.000907  39.993600   2.969690   3.545450  32.798200  -0.001262  -0.000777  23.036000   0.006222  -0.000610  88.589900  -0.002402   0.005587  88.579500   0.005524   0.003060  66.434600   0.000226  -0.002993  88.996800  -5.000190  -0.080851  94.862200   0.006210  -0.000259  71.146700   0.001634  -0.007987  88.985000 -10.003700  -0.174235 110.000000  -0.001304  -0.007275  80.000000  -0.005116   0.005167  -0.059082  11.089100   1.156720   1.100840   2.910290   7.979780  -6.999340  -3.835380   1.241320   0.000000   0.000000   0.000000   1.648190  13.672100 -11.000000   0.806502   0.922523 -10.062100 -10.753400  -0.572857  -0.612886  -0.000000   0.000000  -0.000000
 -1.898630  89.972000   0.288042   2.304900 -11.303200   7.027110   1.566030   8.970690   1.432260   2.956960  17.975200   2.662300   3.354580  -1.354400   0.079451   5.520160  -2.718240   2.137570  -1.111340  -4.064410   2.579110 -32.345900 -14.495100 -57.190100  25.425100 -16.769600 -80.295000  17.627300  28.570900 -14.479700  59.040400  54.333300 -108.293000  15.963700   0.002533   0.002629  12.981800   0.007087   0.008626 -36.286500   6.670180  -8.989680 -30.118400  -0.002697   0.002229 -21.082900  -0.000349   0.001863 -31.267400   0.734938  -1.210090 -46.912700  -0.003525   0.003656 -31.243800  -0.003236  -0.000077 -30.743900  -1.067490   1.794010 -46.140900   0.004715  -0.003143 -30.729800   0.003367  -0.002104 -33.276100  -1.145730   1.745120 -49.940400  -0.005055   0.005002 -33.260300  -0.005509  -0.001472   7.195000  -4.254910  10.348500  53.366700  16.086900  50.306500 -10.851900 -19.630700 100.054000 -33.031700  31.065800  23.100600 -25.950100  18.118200  51.388600  49.046400  -0.000577   0.000714  25.686700   0.001343  -0.000914  39.852300   2.965340   3.547770  32.681800  -0.001161  -0.000865  22.929300   0.006222  -0.000748  88.699000  -0.002521   0.005615  88.667400   0.005548   0.003064  66.500600   0.000127  -0.002963  88.996800  -5.000220  -0.080996  94.959500   0.006214  -0.000187  71.219700   0.001405  -0.007902  88.985000 -10.003700  -0.174100 110.000000  -0.001372  -0.007190  80.000000  -0.005092   0.005153  -0.073936  11.103200   1.142970   1.103510   2.924970   7.906180  -7.020670  -3.843500   1.166610   0.000000   0.000000  -0.000000   1.661670  13.726200 -11.041400   0.807195   0.923754 -10.089100 -10.767000  -0.606646  -0.730033   0.000000   0.000000   0.000000
